<?xml version="1.0" standalone="no"?>
<!DOCTYPE svg PUBLIC "-//W3C//DTD SVG 20010904//EN"
 "http://www.w3.org/TR/2001/REC-SVG-20010904/DTD/svg10.dtd">
<svg version="1.0" xmlns="http://www.w3.org/2000/svg"
 width="771.000000pt" height="959.000000pt" viewBox="0 0 771.000000 959.000000"
 preserveAspectRatio="xMidYMid meet">

<g transform="translate(0.000000,959.000000) scale(0.100000,-0.100000)"
fill="#000000" stroke="none">
<path d="M182 9408 c-9 -9 -12 -1047 -12 -4609 0 -2529 3 -4604 6 -4613 6 -15
338 -16 3669 -16 2015 0 3670 3 3679 6 15 6 16 422 16 4619 0 4197 -1 4613
-16 4619 -9 3 -1661 6 -3673 6 -2831 0 -3660 -3 -3669 -12z m6833 -488 l-460
-460 -2700 0 -2700 0 -460 460 -460 460 3620 0 3620 0 -460 -460z m-5885
-4125 l0 -3640 -460 -460 -460 -460 0 4560 0 4560 460 -460 460 -460 0 -3640z
m5410 0 l0 -3625 -2685 0 -2685 0 0 3625 0 3625 2685 0 2685 0 0 -3625z m465
-4125 l460 -460 -3609 0 c-1985 0 -3606 3 -3603 7 4 5 211 212 459 461 l452
452 2690 0 2691 0 460 -460z"/>
<path d="M2205 7193 c-57 -15 -112 -72 -167 -173 -28 -53 -41 -92 -45 -130 -4
-49 -2 -59 24 -95 29 -40 99 -85 131 -85 10 0 34 -5 55 -11 33 -9 37 -13 37
-42 0 -21 -9 -42 -25 -60 -30 -31 -95 -67 -124 -67 -11 0 -80 31 -153 68 -115
59 -276 127 -284 119 -1 -1 -5 -23 -9 -48 l-7 -45 76 -76 c86 -85 138 -124
193 -144 45 -16 116 -18 141 -4 9 5 35 18 57 28 120 57 193 113 257 200 57 77
88 151 75 180 -5 12 -14 22 -19 22 -4 0 -8 6 -8 14 0 24 -43 43 -120 55 -41 7
-85 17 -99 24 -28 14 -46 57 -37 91 5 22 9 23 51 15 51 -10 90 -28 122 -58 31
-29 41 -26 49 15 14 74 -19 170 -70 206 -12 8 -70 9 -101 1z m129 -51 c32 -46
49 -139 23 -129 -9 3 -18 1 -21 -6 -5 -9 -7 -9 -12 1 -3 6 -10 9 -16 6 -6 -4
-13 -2 -17 4 -8 14 -124 37 -144 29 -10 -4 -17 -17 -17 -30 0 -16 -6 -23 -20
-23 -11 0 -20 4 -20 9 0 5 -7 6 -16 3 -23 -9 -11 36 24 88 37 55 94 86 158 86
48 0 53 -2 78 -38z m-542 -565 c20 2 60 0 88 -5 41 -8 50 -7 46 4 -3 7 31 -5
74 -27 89 -45 91 -45 188 7 34 18 62 30 62 25 0 -5 10 -7 21 -4 64 17 -62 -87
-169 -139 -121 -59 -217 -38 -330 74 -52 51 -70 88 -34 70 9 -5 34 -7 54 -5z"/>
<path d="M2580 7183 c-21 -8 -60 -44 -60 -56 0 -5 9 2 21 17 41 52 129 27 142
-42 4 -20 -3 -34 -28 -59 -18 -18 -42 -33 -53 -33 -29 0 -71 37 -81 73 -9 30
-9 30 -10 6 -1 -31 32 -77 66 -90 60 -23 137 54 116 117 -14 43 -76 80 -113
67z"/>
<path d="M5565 7171 c-53 -10 -91 -22 -91 -29 -1 -7 -2 -46 -3 -87 l-1 -75
-42 6 c-41 6 -45 4 -95 -46 -71 -72 -97 -143 -87 -243 8 -91 15 -104 64 -118
l40 -12 42 48 c24 26 47 54 51 61 17 30 27 11 27 -52 l0 -67 58 7 c31 4 73 11
92 17 l35 11 0 299 c0 164 0 299 0 298 0 -1 -40 -9 -90 -18z m77 -61 c-2 -30
-5 -67 -8 -82 -5 -27 -7 -27 -66 -22 -44 3 -64 1 -70 -8 -4 -7 -8 21 -8 64 0
86 -9 76 85 97 66 15 69 13 67 -49z m-176 -262 c4 -6 -3 -23 -15 -39 -11 -15
-21 -33 -21 -39 0 -5 -4 -10 -10 -10 -5 0 -10 24 -10 54 0 51 1 53 25 48 14
-2 28 -9 31 -14z"/>
<path d="M3313 7033 l-53 -4 0 -49 c0 -31 -8 -63 -20 -85 -25 -45 -25 -54 1
-48 20 6 20 3 14 -64 -8 -79 4 -132 37 -163 20 -19 100 -60 116 -60 4 0 25 30
47 67 37 62 38 67 20 77 -45 26 -55 45 -55 101 0 54 0 55 29 55 31 0 61 22 61
44 0 8 3 28 6 46 l7 32 -46 -3 c-45 -4 -46 -3 -49 26 -3 33 -12 35 -115 28z
m93 -30 c-10 -10 -19 5 -10 18 6 11 8 11 12 0 2 -7 1 -15 -2 -18z m-28 1 c-11
-11 -68 -15 -68 -5 0 5 15 11 33 13 34 3 44 1 35 -8z"/>
<path d="M2852 6952 c-29 -20 -55 -47 -58 -59 -4 -13 -11 -23 -16 -23 -7 0 -9
-22 -6 -55 4 -42 11 -62 31 -83 22 -23 24 -29 12 -37 -9 -6 -16 -28 -18 -49
-2 -39 -1 -40 43 -57 88 -35 226 -20 296 31 33 24 66 96 62 138 -2 29 -10 41
-36 57 -35 22 -34 16 -16 128 l7 37 -89 0 c-49 0 -105 2 -124 5 -28 4 -45 -3
-88 -33z m183 -96 l60 -14 -56 -1 c-34 -1 -62 4 -75 14 -24 19 -9 19 71 1z
m-35 -176 c0 -13 -60 -13 -80 0 -11 7 -2 10 33 10 26 0 47 -4 47 -10z"/>
<path d="M3626 6970 c-12 -8 -39 -30 -59 -49 l-37 -34 3 -117 c2 -96 5 -120
20 -134 9 -10 17 -21 17 -26 0 -15 68 -40 111 -40 61 0 119 31 152 82 15 23
25 49 22 56 -2 7 0 10 5 7 6 -3 10 -1 10 4 0 16 -25 13 -62 -7 -35 -20 -40
-20 -78 -7 -22 7 -17 10 38 21 80 16 107 42 116 113 5 40 3 58 -10 81 -24 40
-49 51 -143 59 -66 5 -86 4 -105 -9z m114 -152 c0 -23 -4 -28 -25 -28 -20 0
-25 5 -25 24 0 13 3 31 6 40 10 25 44 -3 44 -36z"/>
<path d="M5768 6936 l-60 -51 4 -115 c3 -103 6 -118 27 -147 28 -37 66 -53
127 -53 54 0 85 12 119 46 36 36 67 106 54 119 -6 6 -12 6 -17 -1 -16 -25 -70
-44 -97 -34 -29 11 -26 31 4 23 10 -3 30 1 42 8 13 7 30 14 37 15 48 8 75 108
46 170 -19 40 -50 53 -149 63 l-78 7 -59 -50z m159 -130 c-2 -6 -16 -12 -30
-14 -25 -3 -27 0 -27 31 0 18 3 37 7 41 10 10 55 -43 50 -58z"/>
<path d="M2605 6950 c-44 -16 -90 -29 -102 -30 -26 0 -29 -4 -38 -53 l-7 -37
36 0 37 0 -2 -132 c-1 -105 2 -134 12 -136 8 -1 48 4 89 11 l75 13 0 62 c-1
209 -6 332 -12 331 -5 0 -44 -13 -88 -29z"/>
<path d="M3973 6962 l-73 -16 0 -150 c0 -83 -3 -168 -6 -188 -7 -38 -6 -38 28
-38 19 0 63 3 97 6 l61 7 0 121 c0 121 9 167 25 129 4 -10 10 -75 13 -145 5
-145 -3 -136 102 -110 l65 17 5 122 c3 67 8 124 12 128 9 10 27 -27 33 -71 3
-22 2 -85 -2 -141 -5 -57 -8 -103 -7 -103 14 0 90 40 125 66 l46 34 7 114 c8
138 -4 177 -69 213 -55 31 -102 30 -136 -3 l-28 -26 -43 20 c-73 35 -96 37
-124 11 l-24 -22 0 21 c0 26 -7 26 -107 4z m397 -392 c-8 -5 -17 -7 -19 -4 -3
3 1 9 9 14 8 5 17 7 19 4 3 -3 -1 -9 -9 -14z"/>
<path d="M4633 6933 c-77 -73 -88 -101 -87 -214 1 -52 6 -104 12 -115 6 -11
30 -26 54 -33 l43 -13 58 62 c32 34 61 59 64 56 4 -3 5 -32 4 -65 l-2 -59 58
14 c32 8 71 17 87 22 l28 8 -1 123 c-2 133 -19 192 -61 219 -22 13 -147 42
-184 42 -13 0 -43 -20 -73 -47z m118 -102 l23 -18 -20 -33 c-34 -60 -54 -43
-45 38 4 37 10 39 42 13z"/>
<path d="M2675 4990 c-228 -36 -414 -203 -479 -429 -48 -166 8 -303 152 -373
l67 -33 180 0 c107 0 208 5 250 13 l70 13 43 62 43 62 -166 12 c-185 13 -289
32 -385 69 -115 44 -146 88 -137 195 14 168 171 261 364 216 63 -15 73 -24
117 -106 l34 -64 21 69 c38 130 43 164 30 219 -13 58 -25 75 -48 74 -12 0 -11
-3 5 -11 41 -19 46 -133 9 -175 -14 -15 -24 -22 -23 -14 2 7 -3 16 -9 18 -7 3
-13 0 -13 -6 0 -7 -8 -7 -23 -2 -30 12 -201 32 -218 27 -8 -3 -34 -7 -59 -10
-25 -2 -58 -9 -73 -15 -37 -14 -57 -14 -37 0 12 9 11 10 -7 6 -33 -7 -28 5 18
45 86 75 227 127 349 129 45 0 59 3 45 9 -24 10 -53 10 -120 0z m-342 -616
c50 -2 119 -11 152 -20 109 -28 208 -43 348 -50 75 -4 137 -10 137 -14 0 -4
-13 -27 -30 -52 -29 -44 -32 -45 -102 -58 -111 -19 -305 -24 -384 -11 -96 17
-171 59 -213 121 -25 37 -32 55 -27 75 4 14 11 23 17 20 5 -4 51 -8 102 -11z"/>
<path d="M5053 4960 c-39 -10 -76 -20 -81 -24 -6 -3 -10 -99 -10 -238 -1 -259
1 -271 68 -315 50 -35 69 -29 124 33 26 30 47 56 45 58 -2 1 -21 13 -41 25
-36 21 -37 23 -32 69 8 78 22 396 17 405 -5 9 -3 9 -90 -13z m72 -117 c-6 -42
-7 -43 -46 -44 -21 -1 -45 -2 -51 -3 -7 -1 -16 5 -20 14 -5 12 -7 12 -7 -2 -1
-10 -5 -18 -11 -18 -15 0 -13 140 3 144 6 3 39 10 72 18 l60 13 3 -40 c2 -22
1 -59 -3 -82z"/>
<path d="M3975 4833 c-70 -8 -71 -9 -74 -59 -1 -26 -11 -64 -22 -85 -19 -39
-19 -39 0 -39 19 0 20 -5 14 -83 -6 -86 3 -118 47 -155 18 -16 91 -51 105 -52
15 0 88 127 80 140 -3 5 -13 10 -20 10 -27 0 -46 45 -43 102 3 50 4 53 29 50
28 -3 47 13 55 49 18 78 22 71 -32 68 -37 -3 -49 0 -50 11 -4 55 -2 54 -89 43z
m75 -28 c0 -8 -4 -15 -10 -15 -5 0 -10 5 -10 12 0 8 -3 9 -10 2 -5 -5 -31 -7
-57 -5 l-48 5 40 7 c72 11 95 10 95 -6z"/>
<path d="M3525 4761 l-80 -27 -3 -187 -2 -187 22 5 c13 3 52 9 88 13 l65 7 3
138 c2 124 4 138 20 135 31 -6 38 -127 13 -253 -5 -27 -7 -53 -5 -57 5 -7 89
36 104 52 3 3 18 13 35 22 35 20 41 41 51 180 6 88 5 98 -15 126 -12 17 -41
38 -66 47 -43 17 -45 17 -78 -4 -40 -25 -57 -27 -57 -7 0 25 -13 25 -95 -3z"/>
<path d="M4382 4769 c-13 -12 -27 -17 -35 -12 -14 9 -25 11 -98 19 l-56 7 -6
-54 c-9 -72 -9 -234 0 -243 4 -3 8 -13 9 -21 4 -28 49 -74 79 -80 17 -4 50 -5
74 -3 43 3 43 3 66 65 13 34 21 64 18 67 -4 3 -19 6 -35 6 -15 0 -29 6 -29 13
-4 38 2 72 14 85 13 12 19 12 51 -3 20 -10 38 -16 40 -14 2 2 13 40 25 84 20
75 20 81 4 93 -27 20 -96 15 -121 -9z"/>
<path d="M5277 4737 l-57 -53 0 -101 c0 -61 5 -110 13 -124 37 -71 67 -89 145
-89 71 1 130 42 162 111 21 49 13 60 -26 34 -14 -9 -40 -15 -60 -13 -40 3 -51
23 -14 24 37 1 96 22 113 42 8 9 18 42 21 73 7 54 5 59 -24 92 -27 31 -39 36
-88 42 -31 3 -73 8 -92 10 -32 4 -42 -1 -93 -48z m155 -122 c2 -15 -3 -21 -24
-23 -26 -3 -28 -1 -28 31 0 18 3 37 7 41 10 9 41 -25 45 -49z"/>
<path d="M3102 4748 c-74 -59 -132 -146 -132 -199 0 -27 34 -96 59 -119 32
-30 99 -60 142 -64 42 -4 109 18 109 36 0 4 6 8 14 8 27 0 94 88 106 140 10
43 9 54 -10 96 -11 27 -28 56 -36 65 -9 10 -13 26 -9 40 l6 24 -106 1 c-102 1
-106 1 -143 -28z m109 -107 c26 -26 29 -36 29 -90 0 -53 -2 -61 -19 -61 -26 0
-71 48 -72 79 -1 14 -2 35 -3 46 -1 26 12 55 25 55 6 0 24 -13 40 -29z"/>
<path d="M4584 4723 c-93 -89 -119 -161 -86 -234 24 -52 41 -68 103 -98 70
-33 121 -35 164 -5 20 13 39 24 43 24 4 0 24 16 44 35 34 33 68 108 68 152 0
22 -37 98 -55 113 -11 9 -14 22 -10 37 5 22 3 23 -52 23 -32 0 -80 3 -108 6
-50 5 -50 5 -111 -53z m140 -84 c22 -25 26 -41 26 -90 0 -50 -3 -59 -18 -59
-32 0 -65 46 -72 100 -11 82 18 104 64 49z m-27 -255 c-3 -3 -12 -4 -19 -1 -8
3 -5 6 6 6 11 1 17 -2 13 -5z"/>
<path d="M2500 2790 c-112 -11 -207 -39 -225 -66 -8 -13 -13 -24 -10 -24 3 0
1 -9 -5 -20 -10 -18 -8 -20 17 -19 15 0 67 6 116 13 48 7 87 8 87 4 0 -27
-150 -252 -173 -261 -7 -3 -33 -1 -58 4 -186 36 -381 -23 -511 -154 -95 -96
-99 -160 -16 -232 133 -113 347 -44 556 180 l69 74 125 4 c69 3 130 2 136 -2
6 -4 14 -59 17 -126 4 -66 8 -125 10 -132 3 -8 37 -1 112 24 59 20 109 37 111
39 2 1 -3 38 -12 81 -17 86 -55 332 -62 403 -18 179 -87 229 -284 210z m188
-30 c37 -23 72 -89 71 -135 0 -16 -3 -24 -6 -16 -5 11 -7 11 -14 0 -7 -11 -9
-11 -9 -1 0 8 -5 10 -12 6 -23 -14 -86 -22 -82 -10 3 7 -5 12 -16 12 -15 0
-18 -5 -14 -18 9 -31 -6 -20 -17 12 -13 36 -23 38 -44 8 -18 -26 -75 -35 -75
-11 0 8 5 11 12 7 8 -5 9 -2 5 10 -4 9 0 28 9 42 9 13 14 27 11 30 -3 3 -57
-1 -119 -9 -62 -7 -114 -13 -116 -11 -2 1 3 15 11 31 13 24 27 32 84 46 92 22
105 24 203 26 69 1 91 -3 118 -19z m-97 -271 c11 -61 18 -115 17 -119 -3 -6
-174 23 -183 32 -2 2 11 22 29 45 18 23 50 69 71 102 21 33 41 59 43 56 2 -2
13 -54 23 -116z m-361 -204 c0 -4 -39 -45 -86 -91 l-86 -83 -57 -2 c-75 -2
-100 7 -116 43 -12 31 -6 91 12 108 16 16 333 39 333 25z m-363 -136 c16 -42
72 -63 144 -55 45 4 63 12 94 40 21 19 41 34 44 34 3 -1 16 2 29 6 36 12 36 2
-2 -35 -66 -65 -118 -100 -187 -125 -56 -19 -163 -20 -209 -1 -78 33 -124 100
-96 141 12 19 23 22 93 23 79 1 80 0 90 -28z m964 6 c17 -44 11 -50 -84 -83
-52 -18 -97 -32 -100 -32 -4 0 -7 29 -7 64 l0 65 33 3 c17 2 59 3 91 3 49 -1
61 -4 67 -20z"/>
<path d="M3645 2768 c-83 -21 -99 -27 -94 -33 3 -2 38 5 79 15 41 11 76 20 78
20 6 0 1 -146 -6 -156 -4 -6 -30 -11 -58 -11 -28 0 -56 -3 -61 -6 -10 -6 -20
34 -25 98 -1 17 -5 -91 -8 -240 -3 -148 -10 -278 -14 -287 -6 -14 -4 -18 10
-18 36 0 146 39 158 56 12 16 16 15 57 -9 52 -30 71 -25 117 27 56 64 64 89
60 187 -3 81 -5 90 -32 118 -20 21 -46 34 -84 42 -50 12 -56 11 -68 -6 -8 -10
-16 -16 -19 -13 -3 2 -8 56 -13 119 l-7 115 -70 -18z m120 -338 c10 -32 16
-90 10 -100 -3 -4 -14 -6 -25 -3 -17 4 -20 14 -20 57 0 29 3 56 7 59 12 12 22
7 28 -13z"/>
<path d="M4075 2780 c-31 -12 -55 -44 -61 -82 -13 -80 93 -132 151 -74 30 30
39 64 26 98 -16 43 -78 74 -116 58z m82 -32 c42 -39 22 -114 -36 -133 -25 -8
-77 18 -92 46 -38 72 67 144 128 87z"/>
<path d="M5907 2760 c-38 -10 -71 -21 -75 -25 -9 -9 -15 -430 -7 -473 7 -36
43 -74 93 -98 l33 -16 50 54 c27 29 49 57 49 63 0 5 -13 19 -30 30 -16 11 -31
25 -33 30 -3 9 4 162 17 368 3 48 2 87 -3 87 -4 0 -9 -26 -10 -58 -1 -31 -5
-71 -9 -87 -8 -30 -9 -30 -73 -29 l-64 2 -3 60 -3 60 71 17 c38 9 70 21 70 26
0 5 -1 8 -2 8 -2 -1 -34 -10 -71 -19z"/>
<path d="M5138 2633 l-48 -4 0 -50 c0 -30 -8 -65 -20 -89 -20 -39 -20 -40 -1
-40 17 0 18 -8 17 -92 -1 -79 2 -97 19 -120 23 -30 62 -56 104 -68 33 -9 51 6
92 79 23 42 23 44 5 55 -48 28 -57 45 -54 104 3 54 4 57 28 54 39 -4 58 17 63
71 l4 49 -43 -4 c-41 -3 -43 -2 -46 27 -3 27 -7 30 -38 31 -19 0 -56 -1 -82
-3z m87 -19 c26 -10 -1 -21 -38 -16 -27 4 -29 6 -12 13 26 10 30 10 50 3z"/>
<path d="M4865 2568 c-36 -22 -55 -23 -55 -3 0 19 -24 19 -86 -1 -102 -33 -94
-14 -94 -215 0 -98 3 -180 8 -182 4 -2 43 1 87 7 l80 12 2 119 c3 135 9 173
24 158 21 -21 28 -132 15 -221 -7 -48 -11 -90 -9 -95 5 -8 26 2 110 56 68 43
67 41 79 180 8 99 -7 159 -44 177 -54 25 -86 28 -117 8z"/>
<path d="M2973 2562 l-73 -16 0 -157 c0 -86 -3 -171 -6 -189 l-7 -32 64 6 c35
2 79 5 97 5 l32 1 0 123 c0 122 9 168 25 130 4 -10 10 -73 13 -141 3 -88 8
-125 17 -128 7 -3 44 3 82 13 l68 18 5 122 c3 67 8 124 11 128 4 3 14 -10 23
-30 14 -30 16 -54 10 -160 -4 -69 -3 -125 1 -125 14 0 98 52 125 77 14 13 28
23 31 23 3 0 9 51 13 113 5 90 3 121 -8 149 -20 47 -62 77 -121 84 -41 6 -49
4 -75 -21 l-29 -27 -52 26 c-63 31 -95 33 -111 6 -7 -11 -16 -20 -20 -20 -5 0
-8 9 -8 20 0 23 -6 23 -107 2z m374 -404 c-3 -8 -6 -5 -6 6 -1 11 2 17 5 13 3
-3 4 -12 1 -19z"/>
<path d="M4078 2543 c-98 -32 -107 -37 -113 -64 -8 -38 0 -49 36 -49 l29 0 0
-135 c0 -154 -11 -141 105 -121 l70 12 0 62 c-1 209 -6 332 -12 331 -5 0 -56
-17 -115 -36z"/>
<path d="M4315 2537 l-50 -45 -3 -89 c-5 -108 8 -160 48 -198 55 -53 174 -45
232 15 22 23 61 101 54 108 -4 3 -26 -4 -50 -16 -37 -19 -48 -21 -72 -11 -29
12 -29 12 28 26 77 20 103 46 112 111 5 40 3 59 -10 81 -26 43 -52 54 -149 58
l-90 5 -50 -45z m153 -106 c12 -34 8 -41 -25 -41 -20 0 -23 5 -23 35 0 28 4
35 19 35 12 0 23 -11 29 -29z"/>
<path d="M5447 2539 c-32 -27 -57 -62 -74 -98 -23 -51 -24 -63 -18 -136 4 -44
7 -87 7 -96 -1 -15 65 -49 95 -49 6 0 36 27 66 60 31 33 59 60 62 60 3 0 5
-30 5 -66 0 -49 3 -65 13 -62 6 3 45 13 85 23 l72 19 0 126 c0 184 -23 220
-154 245 -105 20 -105 20 -159 -26z m128 -139 c-8 -9 -13 -19 -11 -21 2 -2 -7
-15 -20 -29 l-24 -25 0 56 c0 31 3 59 6 62 4 4 20 -1 35 -10 26 -15 27 -19 14
-33z"/>
</g>
</svg>
